<mxfile host="app.diagrams.net" modified="2024-02-01T14:04:55.119Z" agent="Mozilla/5.0 (Windows NT 10.0; Win64; x64) AppleWebKit/537.36 (KHTML, like Gecko) Chrome/120.0.0.0 Safari/537.36" etag="4lK4heWX0BpK6e9dON2t" version="23.1.0" type="device">
  <diagram name="Page-1" id="XJQZ3jlrP-zcOxzeRQlK">
    <mxGraphModel dx="1841" dy="990" grid="1" gridSize="10" guides="1" tooltips="1" connect="1" arrows="1" fold="1" page="1" pageScale="1" pageWidth="850" pageHeight="1100" math="0" shadow="0">
      <root>
        <mxCell id="0" />
        <mxCell id="1" parent="0" />
        <mxCell id="uaJodEgOAUZRbb1Ew_Ue-16" style="edgeStyle=orthogonalEdgeStyle;rounded=0;orthogonalLoop=1;jettySize=auto;html=1;entryX=0;entryY=0.5;entryDx=0;entryDy=0;" edge="1" parent="1" source="uaJodEgOAUZRbb1Ew_Ue-2" target="uaJodEgOAUZRbb1Ew_Ue-11">
          <mxGeometry relative="1" as="geometry" />
        </mxCell>
        <mxCell id="uaJodEgOAUZRbb1Ew_Ue-2" value="Calcul" style="swimlane;fontStyle=0;childLayout=stackLayout;horizontal=1;startSize=30;fillColor=none;horizontalStack=0;resizeParent=1;resizeParentMax=0;resizeLast=0;collapsible=1;marginBottom=0;whiteSpace=wrap;html=1;" vertex="1" parent="1">
          <mxGeometry x="80" y="320" width="170" height="108" as="geometry" />
        </mxCell>
        <mxCell id="uaJodEgOAUZRbb1Ew_Ue-3" value="+ field: number a = 0" style="text;strokeColor=none;fillColor=none;align=left;verticalAlign=top;spacingLeft=4;spacingRight=4;overflow=hidden;rotatable=0;points=[[0,0.5],[1,0.5]];portConstraint=eastwest;whiteSpace=wrap;html=1;" vertex="1" parent="uaJodEgOAUZRbb1Ew_Ue-2">
          <mxGeometry y="30" width="170" height="26" as="geometry" />
        </mxCell>
        <mxCell id="uaJodEgOAUZRbb1Ew_Ue-4" value="+ field: number b = 0" style="text;strokeColor=none;fillColor=none;align=left;verticalAlign=top;spacingLeft=4;spacingRight=4;overflow=hidden;rotatable=0;points=[[0,0.5],[1,0.5]];portConstraint=eastwest;whiteSpace=wrap;html=1;" vertex="1" parent="uaJodEgOAUZRbb1Ew_Ue-2">
          <mxGeometry y="56" width="170" height="26" as="geometry" />
        </mxCell>
        <mxCell id="uaJodEgOAUZRbb1Ew_Ue-5" value="+ field: operator oper = &#39;\0&#39;" style="text;strokeColor=none;fillColor=none;align=left;verticalAlign=top;spacingLeft=4;spacingRight=4;overflow=hidden;rotatable=0;points=[[0,0.5],[1,0.5]];portConstraint=eastwest;whiteSpace=wrap;html=1;" vertex="1" parent="uaJodEgOAUZRbb1Ew_Ue-2">
          <mxGeometry y="82" width="170" height="26" as="geometry" />
        </mxCell>
        <mxCell id="uaJodEgOAUZRbb1Ew_Ue-7" value="Calcul" style="swimlane;fontStyle=0;childLayout=stackLayout;horizontal=1;startSize=30;fillColor=none;horizontalStack=0;resizeParent=1;resizeParentMax=0;resizeLast=0;collapsible=1;marginBottom=0;whiteSpace=wrap;html=1;" vertex="1" parent="1">
          <mxGeometry x="720" y="320" width="170" height="108" as="geometry" />
        </mxCell>
        <mxCell id="uaJodEgOAUZRbb1Ew_Ue-8" value="+ field: number a = X" style="text;strokeColor=none;fillColor=none;align=left;verticalAlign=top;spacingLeft=4;spacingRight=4;overflow=hidden;rotatable=0;points=[[0,0.5],[1,0.5]];portConstraint=eastwest;whiteSpace=wrap;html=1;" vertex="1" parent="uaJodEgOAUZRbb1Ew_Ue-7">
          <mxGeometry y="30" width="170" height="26" as="geometry" />
        </mxCell>
        <mxCell id="uaJodEgOAUZRbb1Ew_Ue-9" value="+ field: number b = 0" style="text;strokeColor=none;fillColor=none;align=left;verticalAlign=top;spacingLeft=4;spacingRight=4;overflow=hidden;rotatable=0;points=[[0,0.5],[1,0.5]];portConstraint=eastwest;whiteSpace=wrap;html=1;" vertex="1" parent="uaJodEgOAUZRbb1Ew_Ue-7">
          <mxGeometry y="56" width="170" height="26" as="geometry" />
        </mxCell>
        <mxCell id="uaJodEgOAUZRbb1Ew_Ue-10" value="+ field: operator oper = &#39;\0&#39;" style="text;strokeColor=none;fillColor=none;align=left;verticalAlign=top;spacingLeft=4;spacingRight=4;overflow=hidden;rotatable=0;points=[[0,0.5],[1,0.5]];portConstraint=eastwest;whiteSpace=wrap;html=1;" vertex="1" parent="uaJodEgOAUZRbb1Ew_Ue-7">
          <mxGeometry y="82" width="170" height="26" as="geometry" />
        </mxCell>
        <mxCell id="uaJodEgOAUZRbb1Ew_Ue-22" style="edgeStyle=orthogonalEdgeStyle;rounded=0;orthogonalLoop=1;jettySize=auto;html=1;entryX=0;entryY=0.5;entryDx=0;entryDy=0;" edge="1" parent="1" source="uaJodEgOAUZRbb1Ew_Ue-11" target="uaJodEgOAUZRbb1Ew_Ue-21">
          <mxGeometry relative="1" as="geometry" />
        </mxCell>
        <mxCell id="uaJodEgOAUZRbb1Ew_Ue-25" style="edgeStyle=orthogonalEdgeStyle;rounded=0;orthogonalLoop=1;jettySize=auto;html=1;entryX=0.5;entryY=0;entryDx=0;entryDy=0;" edge="1" parent="1" source="uaJodEgOAUZRbb1Ew_Ue-11" target="uaJodEgOAUZRbb1Ew_Ue-24">
          <mxGeometry relative="1" as="geometry" />
        </mxCell>
        <mxCell id="uaJodEgOAUZRbb1Ew_Ue-11" value="input x" style="ellipse;whiteSpace=wrap;html=1;" vertex="1" parent="1">
          <mxGeometry x="330" y="334" width="120" height="80" as="geometry" />
        </mxCell>
        <mxCell id="uaJodEgOAUZRbb1Ew_Ue-12" value="Actor" style="shape=umlActor;verticalLabelPosition=bottom;verticalAlign=top;html=1;" vertex="1" parent="1">
          <mxGeometry x="60" y="750" width="30" height="60" as="geometry" />
        </mxCell>
        <mxCell id="uaJodEgOAUZRbb1Ew_Ue-19" value="" style="curved=1;endArrow=classic;html=1;rounded=0;entryX=0.5;entryY=0;entryDx=0;entryDy=0;" edge="1" parent="1" target="uaJodEgOAUZRbb1Ew_Ue-21">
          <mxGeometry width="50" height="50" relative="1" as="geometry">
            <mxPoint x="590" y="330" as="sourcePoint" />
            <mxPoint x="590" y="320" as="targetPoint" />
            <Array as="points">
              <mxPoint x="540" y="286" />
              <mxPoint x="550" y="236" />
              <mxPoint x="620" y="226" />
              <mxPoint x="650" y="286" />
            </Array>
          </mxGeometry>
        </mxCell>
        <mxCell id="uaJodEgOAUZRbb1Ew_Ue-23" style="edgeStyle=orthogonalEdgeStyle;rounded=0;orthogonalLoop=1;jettySize=auto;html=1;" edge="1" parent="1" source="uaJodEgOAUZRbb1Ew_Ue-21" target="uaJodEgOAUZRbb1Ew_Ue-7">
          <mxGeometry relative="1" as="geometry" />
        </mxCell>
        <mxCell id="uaJodEgOAUZRbb1Ew_Ue-21" value="press =" style="ellipse;whiteSpace=wrap;html=1;" vertex="1" parent="1">
          <mxGeometry x="530" y="334" width="120" height="80" as="geometry" />
        </mxCell>
        <mxCell id="uaJodEgOAUZRbb1Ew_Ue-29" style="edgeStyle=orthogonalEdgeStyle;rounded=0;orthogonalLoop=1;jettySize=auto;html=1;entryX=0;entryY=0.5;entryDx=0;entryDy=0;" edge="1" parent="1" source="uaJodEgOAUZRbb1Ew_Ue-24" target="uaJodEgOAUZRbb1Ew_Ue-28">
          <mxGeometry relative="1" as="geometry" />
        </mxCell>
        <mxCell id="uaJodEgOAUZRbb1Ew_Ue-46" style="edgeStyle=orthogonalEdgeStyle;rounded=0;orthogonalLoop=1;jettySize=auto;html=1;entryX=0.5;entryY=0;entryDx=0;entryDy=0;" edge="1" parent="1" source="uaJodEgOAUZRbb1Ew_Ue-24" target="uaJodEgOAUZRbb1Ew_Ue-45">
          <mxGeometry relative="1" as="geometry" />
        </mxCell>
        <mxCell id="uaJodEgOAUZRbb1Ew_Ue-24" value="press +" style="ellipse;whiteSpace=wrap;html=1;" vertex="1" parent="1">
          <mxGeometry x="330" y="480" width="120" height="80" as="geometry" />
        </mxCell>
        <mxCell id="uaJodEgOAUZRbb1Ew_Ue-34" style="edgeStyle=orthogonalEdgeStyle;rounded=0;orthogonalLoop=1;jettySize=auto;html=1;" edge="1" parent="1" source="uaJodEgOAUZRbb1Ew_Ue-28" target="uaJodEgOAUZRbb1Ew_Ue-30">
          <mxGeometry relative="1" as="geometry">
            <mxPoint x="710" y="520" as="targetPoint" />
          </mxGeometry>
        </mxCell>
        <mxCell id="uaJodEgOAUZRbb1Ew_Ue-28" value="press =" style="ellipse;whiteSpace=wrap;html=1;" vertex="1" parent="1">
          <mxGeometry x="530" y="480" width="120" height="80" as="geometry" />
        </mxCell>
        <mxCell id="uaJodEgOAUZRbb1Ew_Ue-38" style="edgeStyle=orthogonalEdgeStyle;rounded=0;orthogonalLoop=1;jettySize=auto;html=1;entryX=0;entryY=0.5;entryDx=0;entryDy=0;" edge="1" parent="1" source="uaJodEgOAUZRbb1Ew_Ue-30" target="uaJodEgOAUZRbb1Ew_Ue-37">
          <mxGeometry relative="1" as="geometry" />
        </mxCell>
        <mxCell id="uaJodEgOAUZRbb1Ew_Ue-30" value="Calcul" style="swimlane;fontStyle=0;childLayout=stackLayout;horizontal=1;startSize=34;fillColor=none;horizontalStack=0;resizeParent=1;resizeParentMax=0;resizeLast=0;collapsible=1;marginBottom=0;whiteSpace=wrap;html=1;rotation=0;" vertex="1" parent="1">
          <mxGeometry x="720" y="464" width="170" height="112" as="geometry" />
        </mxCell>
        <mxCell id="uaJodEgOAUZRbb1Ew_Ue-31" value="+ field: number a = X+X" style="text;strokeColor=none;fillColor=none;align=left;verticalAlign=top;spacingLeft=4;spacingRight=4;overflow=hidden;rotatable=0;points=[[0,0.5],[1,0.5]];portConstraint=eastwest;whiteSpace=wrap;html=1;" vertex="1" parent="uaJodEgOAUZRbb1Ew_Ue-30">
          <mxGeometry y="34" width="170" height="26" as="geometry" />
        </mxCell>
        <mxCell id="uaJodEgOAUZRbb1Ew_Ue-32" value="+ field: number b = X" style="text;strokeColor=none;fillColor=none;align=left;verticalAlign=top;spacingLeft=4;spacingRight=4;overflow=hidden;rotatable=0;points=[[0,0.5],[1,0.5]];portConstraint=eastwest;whiteSpace=wrap;html=1;" vertex="1" parent="uaJodEgOAUZRbb1Ew_Ue-30">
          <mxGeometry y="60" width="170" height="26" as="geometry" />
        </mxCell>
        <mxCell id="uaJodEgOAUZRbb1Ew_Ue-33" value="+ field: operator oper = &#39;\0&#39;" style="text;strokeColor=none;fillColor=none;align=left;verticalAlign=top;spacingLeft=4;spacingRight=4;overflow=hidden;rotatable=0;points=[[0,0.5],[1,0.5]];portConstraint=eastwest;whiteSpace=wrap;html=1;" vertex="1" parent="uaJodEgOAUZRbb1Ew_Ue-30">
          <mxGeometry y="86" width="170" height="26" as="geometry" />
        </mxCell>
        <mxCell id="uaJodEgOAUZRbb1Ew_Ue-43" style="edgeStyle=orthogonalEdgeStyle;rounded=0;orthogonalLoop=1;jettySize=auto;html=1;" edge="1" parent="1" source="uaJodEgOAUZRbb1Ew_Ue-37" target="uaJodEgOAUZRbb1Ew_Ue-39">
          <mxGeometry relative="1" as="geometry" />
        </mxCell>
        <mxCell id="uaJodEgOAUZRbb1Ew_Ue-37" value="press =" style="ellipse;whiteSpace=wrap;html=1;" vertex="1" parent="1">
          <mxGeometry x="970" y="480" width="120" height="80" as="geometry" />
        </mxCell>
        <mxCell id="uaJodEgOAUZRbb1Ew_Ue-39" value="Calcul" style="swimlane;fontStyle=0;childLayout=stackLayout;horizontal=1;startSize=34;fillColor=none;horizontalStack=0;resizeParent=1;resizeParentMax=0;resizeLast=0;collapsible=1;marginBottom=0;whiteSpace=wrap;html=1;rotation=0;" vertex="1" parent="1">
          <mxGeometry x="1160" y="464" width="170" height="112" as="geometry" />
        </mxCell>
        <mxCell id="uaJodEgOAUZRbb1Ew_Ue-40" value="+ field: number a = 2X + X" style="text;strokeColor=none;fillColor=none;align=left;verticalAlign=top;spacingLeft=4;spacingRight=4;overflow=hidden;rotatable=0;points=[[0,0.5],[1,0.5]];portConstraint=eastwest;whiteSpace=wrap;html=1;" vertex="1" parent="uaJodEgOAUZRbb1Ew_Ue-39">
          <mxGeometry y="34" width="170" height="26" as="geometry" />
        </mxCell>
        <mxCell id="uaJodEgOAUZRbb1Ew_Ue-41" value="+ field: number b = X" style="text;strokeColor=none;fillColor=none;align=left;verticalAlign=top;spacingLeft=4;spacingRight=4;overflow=hidden;rotatable=0;points=[[0,0.5],[1,0.5]];portConstraint=eastwest;whiteSpace=wrap;html=1;" vertex="1" parent="uaJodEgOAUZRbb1Ew_Ue-39">
          <mxGeometry y="60" width="170" height="26" as="geometry" />
        </mxCell>
        <mxCell id="uaJodEgOAUZRbb1Ew_Ue-42" value="+ field: operator oper = &#39;\0&#39;" style="text;strokeColor=none;fillColor=none;align=left;verticalAlign=top;spacingLeft=4;spacingRight=4;overflow=hidden;rotatable=0;points=[[0,0.5],[1,0.5]];portConstraint=eastwest;whiteSpace=wrap;html=1;" vertex="1" parent="uaJodEgOAUZRbb1Ew_Ue-39">
          <mxGeometry y="86" width="170" height="26" as="geometry" />
        </mxCell>
        <mxCell id="uaJodEgOAUZRbb1Ew_Ue-45" value="press operator" style="ellipse;whiteSpace=wrap;html=1;" vertex="1" parent="1">
          <mxGeometry x="330" y="630" width="120" height="80" as="geometry" />
        </mxCell>
      </root>
    </mxGraphModel>
  </diagram>
</mxfile>
